# xmcd CD database file
#
# Track frame offsets:
#	150
#	13223
#	27027
#	37706
#	55712
#	69508
#	82513
#	97243
#
# Disc length: 1424 seconds
#
# Revision: 0
# Processed by: cddbd v1.4PL0 Copyright (c) Steve Scherf et al.
# Submitted via: CDex 1.50Beta7
#
DISCID=52058e08
DTITLE=Barbara Fordham - Empress
DYEAR=2002
DGENRE=Blues
TTITLE0=Whoa Tillie, Take Your Time
TTITLE1=Gimme A Pigfoot
TTITLE2=Aggravatin' Papa
TTITLE3=Down Hearted Blues
TTITLE4=Lady Luck Blues
TTITLE5=Sinful Blues
TTITLE6=Nobody Knows You When You're Down And Out
TTITLE7=T'ain't Nobody's Bizness If I Do
EXTD=YEAR: 2002
EXTT0=
EXTT1=
EXTT2=
EXTT3=
EXTT4=
EXTT5=
EXTT6=
EXTT7=
PLAYORDER=
